<?xml version="1.0" encoding="UTF-8"?>
<svg version="1.1" xmlns="http://www.w3.org/2000/svg" width="225" height="225">
<path d="M0 0 C74.25 0 148.5 0 225 0 C225 74.25 225 148.5 225 225 C150.75 225 76.5 225 0 225 C0 150.75 0 76.5 0 0 Z " fill="#000000" transform="translate(0,0)"/>
<path d="M0 0 C2.97 0 5.94 0 9 0 C9 1.32 9 2.64 9 4 C9.84820312 3.51402344 10.69640625 3.02804688 11.5703125 2.52734375 C17.73710761 -0.21891694 24.97061687 -0.06772297 31.4765625 1.65625 C37.3271056 4.27657046 41.41109312 8.82218624 44.25 14.5 C43.83779082 18.62209176 40.94487081 21.23818872 38 24 C37.67 24 37.34 24 37 24 C36.87625 23.33613281 36.7525 22.67226562 36.625 21.98828125 C35.49675974 17.15800265 34.53982658 13.7402803 30.3125 10.875 C25.952245 8.62686852 22.85124669 8.29578677 18 9 C14.24787724 11.01502889 12.36355905 12.45466142 10 16 C9.3681081 20.98196877 8.79988288 26.54176753 11.05078125 31.15234375 C13.47248971 34.07411001 15.57753137 35.83487097 19.35546875 36.2734375 C24.87499723 36.47137921 28.92760991 36.45693878 33.25 32.8203125 C36.35519859 29.59035147 39.16580457 26.15334191 41.9140625 22.6171875 C43.53659045 20.58143146 45.11222154 18.94433429 47 17.1875 C50.29127907 11.94202398 49.90848147 6.07350252 50 0 C52.97 0 55.94 0 59 0 C59 1.32 59 2.64 59 4 C59.53367188 3.71125 60.06734375 3.4225 60.6171875 3.125 C67.2738274 -0.19180327 73.21007077 -1.49256936 80.45703125 0.765625 C88.13332663 3.97362904 92.52423242 7.74889718 96.046875 15.3515625 C98.17203595 21.25672284 97.63003636 26.01325898 95.25 31.75 C92.44007775 37.36008783 89.5739878 41.53759246 83.6796875 44.2734375 C80.08554434 45.24794279 76.57519071 45.40164544 72.875 45.4375 C72.19405273 45.4475708 71.51310547 45.4576416 70.81152344 45.46801758 C65.73320239 45.38090769 63.86702659 44.4335133 59 42 C59 47.61 59 53.22 59 59 C56.03 59 53.06 59 50 59 C49.85064676 54.99848192 49.7423239 50.99806236 49.67041016 46.99438477 C49.64040705 45.63537303 49.59958815 44.27655219 49.54736328 42.91821289 C49.07037569 30.18451485 49.07037569 30.18451485 52.8984375 25.56640625 C55.54154279 23 55.54154279 23 58 23 C58.14695313 23.60328125 58.29390625 24.2065625 58.4453125 24.828125 C59.57321576 28.84709065 60.52386413 31.4994469 63.4375 34.5625 C69.00161645 36.8076698 75.31159078 37.38491994 81.0390625 35.234375 C84.10069982 33.33404839 85.69273605 31.28566788 87 28 C87.64042791 23.00317293 87.78907589 18.51502572 85.4375 14 C81.37411731 10.66594241 77.65962964 9.17469786 72.4375 8.625 C65.76695387 9.35269594 62.03872344 12.60084472 57.6875 17.5 C57.21602539 18.02682373 56.74455078 18.55364746 56.25878906 19.09643555 C53.15811194 22.59017831 50.18837831 26.18096578 47.25 29.8125 C35.47432732 44.35891919 35.47432732 44.35891919 26.59765625 45.3984375 C25.43105469 45.39070313 24.26445313 45.38296875 23.0625 45.375 C21.89847656 45.38273437 20.73445313 45.39046875 19.53515625 45.3984375 C16 45 16 45 9 42 C9 47.61 9 53.22 9 59 C6.03 59 3.06 59 0 59 C0 39.53 0 20.06 0 0 Z " fill="#EFEFEF" transform="translate(64,83)"/>
</svg>
